<svg width="842" height="120" viewBox="0 0 842 120" xmlns="http://www.w3.org/2000/svg">
  <defs>
    ${getFontStyles()}
  </defs>

  <!-- Background -->
  <rect width="842" height="120" rx="20" fill="#202021" stroke="#30363d" stroke-width="1"/>

  <!-- Dividers -->
  <line x1="280.6666666666667" y1="25" x2="280.6666666666667" y2="95" stroke="#30363d" stroke-width="1" />
  <line x1="561.3333333333334" y1="25" x2="561.3333333333334" y2="95" stroke="#30363d" stroke-width="1" />

  <!-- Content -->
  
    <g opacity="0">
      <animate attributeName="opacity" from="0" to="1" dur="0.8s" begin="0.2s" fill="freeze" />
      <animateTransform attributeName="transform" type="translate" from="30.333333333333343 50" to="30.333333333333343 42" dur="0.8s" begin="0.2s" fill="freeze" />
      
      <!-- Icon -->
      <svg x="0" y="0" width="36" height="36" viewBox="0 0 24 24">
        <path d="M7.157 22.201A1.784 1.799 0 0 1 5.374 24a1.784 1.799 0 0 1-1.784-1.799 1.784 1.799 0 0 1 1.784-1.799 1.784 1.799 0 0 1 1.783 1.799zM20.582 1.427a1.415 1.427 0 0 1-1.415 1.428 1.415 1.427 0 0 1-1.416-1.428A1.415 1.427 0 0 1 19.167 0a1.415 1.427 0 0 1 1.415 1.427zM4.992 3.336A1.047 1.056 0 0 1 3.946 4.39a1.047 1.056 0 0 1-1.047-1.055A1.047 1.056 0 0 1 3.946 2.28a1.047 1.056 0 0 1 1.046 1.056zm7.336 1.517c3.769 0 7.06 1.38 8.768 3.424a9.363 9.363 0 0 0-3.393-4.547 9.238 9.238 0 0 0-5.377-1.728A9.238 9.238 0 0 0 6.95 3.73a9.363 9.363 0 0 0-3.394 4.547c1.713-2.04 5.004-3.424 8.772-3.424zm.001 13.295c-3.768 0-7.06-1.381-8.768-3.425a9.363 9.363 0 0 0 3.394 4.547A9.238 9.238 0 0 0 12.33 21a9.238 9.238 0 0 0 5.377-1.729 9.363 9.363 0 0 0 3.393-4.547c-1.712 2.044-5.003 3.425-8.772 3.425Z" fill="#F37626" />
      </svg>
      
      <!-- Text -->
      <text x="56" y="15" fill="#ffffff" font-family="'Grift', sans-serif" font-size="15" font-weight="500">Merged PR #18157</text>
      <text x="56" y="33" fill="#8b949e" font-family="'Grift', sans-serif" font-size="13" font-weight="400">JupyterLab Contribution</text>
    </g>
  
    <g opacity="0">
      <animate attributeName="opacity" from="0" to="1" dur="0.8s" begin="0.4s" fill="freeze" />
      <animateTransform attributeName="transform" type="translate" from="311 50" to="311 42" dur="0.8s" begin="0.4s" fill="freeze" />
      
      <!-- Icon -->
      <svg x="0" y="0" width="36" height="36" viewBox="0 0 24 24">
        <path d="M13.483 0a1.374 1.374 0 0 0-.961.438L7.116 6.226l-3.854 4.126a5.266 5.266 0 0 0-1.209 2.104 5.35 5.35 0 0 0-.125.513 5.527 5.527 0 0 0 .062 2.362 5.83 5.83 0 0 0 .349 1.017 5.938 5.938 0 0 0 1.271 1.818l4.277 4.193.039.038c2.248 2.165 5.852 2.133 8.063-.074l2.396-2.392c.54-.54.54-1.414.003-1.955a1.378 1.378 0 0 0-1.951-.003l-2.396 2.392a3.021 3.021 0 0 1-4.205.038l-.02-.019-4.276-4.193c-.652-.64-.972-1.469-.948-2.263a2.68 2.68 0 0 1 .066-.523 2.545 2.545 0 0 1 .619-1.164L9.13 8.114c1.058-1.134 3.204-1.27 4.43-.278l3.501 2.831c.593.48 1.461.387 1.94-.207a1.384 1.384 0 0 0-.207-1.943l-3.5-2.831c-.8-.647-1.766-1.045-2.774-1.202l2.015-2.158A1.384 1.384 0 0 0 13.483 0zm-2.866 12.815a1.38 1.38 0 0 0-1.38 1.382 1.38 1.38 0 0 0 1.38 1.382H20.79a1.38 1.38 0 0 0 1.38-1.382 1.38 1.38 0 0 0-1.38-1.382z" fill="#FFA116" />
      </svg>
      
      <!-- Text -->
      <text x="56" y="15" fill="#ffffff" font-family="'Grift', sans-serif" font-size="15" font-weight="500">417 LeetCode Solved</text>
      <text x="56" y="33" fill="#8b949e" font-family="'Grift', sans-serif" font-size="13" font-weight="400">32 Hard • 150+ GFG</text>
    </g>
  
    <g opacity="0">
      <animate attributeName="opacity" from="0" to="1" dur="0.8s" begin="0.6s" fill="freeze" />
      <animateTransform attributeName="transform" type="translate" from="591.6666666666667 50" to="591.6666666666667 42" dur="0.8s" begin="0.6s" fill="freeze" />
      
      <!-- Icon -->
      <svg x="0" y="0" width="36" height="36" viewBox="0 0 24 24">
        <path d="M19 5h-2V3H7v2H5c-1.1 0-2 .9-2 2v1c0 2.55 1.92 4.63 4.39 4.94A5.01 5.01 0 0 0 11 15.9V19H7v2h10v-2h-4v-3.1a5.01 5.01 0 0 0 3.61-2.96C19.08 12.63 21 10.55 21 8V7c0-1.1-.9-2-2-2zM5 8V7h2v3.82C5.84 10.4 5 9.3 5 8zm14 0c0 1.3-.84 2.4-2 2.82V7h2v1z" fill="#F1C40F" />
      </svg>
      
      <!-- Text -->
      <text x="56" y="15" fill="#ffffff" font-family="'Grift', sans-serif" font-size="15" font-weight="500">Hackathon Finalist</text>
      <text x="56" y="33" fill="#8b949e" font-family="'Grift', sans-serif" font-size="13" font-weight="400">ADCET 2024 Innovation</text>
    </g>
  
</svg>