<svg width="110.88" height="28" viewBox="0 0 110.88 28" xmlns="http://www.w3.org/2000/svg">
  <defs>
    ${getFontStyles()}
  </defs>
  <rect width="110.88" height="28" rx="14" fill="#202021" />
  <g transform="translate(14, 6)">
    <path d="M20.447 20.452h-3.554v-5.569c0-1.328-.027-3.037-1.852-3.037-1.853 0-2.136 1.445-2.136 2.939v5.667H9.351V9h3.414v1.561h.046c.477-.9 1.637-1.85 3.37-1.85 3.601 0 4.267 2.37 4.267 5.455v6.286zM5.337 7.433c-1.144 0-2.063-.926-2.063-2.065 0-1.138.92-2.063 2.063-2.063 1.14 0 2.064.925 2.064 2.063 0 1.139-.925 2.065-2.064 2.065zm1.782 13.019H3.555V9h3.564v11.452zM22.225 0H1.771C.792 0 0 .774 0 1.729v20.542C0 23.227.792 24 1.771 24h20.451C23.2 24 24 23.227 24 22.271V1.729C24 .774 23.2 0 22.222 0h.003z" fill="#f0f6fc" transform="scale(0.6666666666666666)"/>
  </g>
  <text x="38" y="18.55" fill="#f0f6fc" font-family="'Grift', sans-serif" font-size="13" font-weight="400">LinkedIn</text>
</svg>