<svg width="729" height="131" xmlns="http://www.w3.org/2000/svg" font-family="'Grift', sans-serif">
  <defs>${getFontStyles()}</defs>
  <rect width="100%" height="100%" fill="none" rx="8"/>
  <g font-size="9" fill="#8b949e">
    <text x="43" y="12">Jul</text>
    <text x="95" y="12">Aug</text>
    <text x="160" y="12">Sep</text>
    <text x="212" y="12">Oct</text>
    <text x="264" y="12">Nov</text>
    <text x="329" y="12">Dec</text>
    <text x="381" y="12">Jan</text>
    <text x="433" y="12">Feb</text>
    <text x="485" y="12">Mar</text>
    <text x="550" y="12">Apr</text>
    <text x="602" y="12">May</text>
    <text x="667" y="12">Jun</text>
  </g>
  <g font-size="9" fill="#8b949e">
    <text dx="0" dy="42">Mon</text>
    <text dx="0" dy="68">Wed</text>
    <text dx="0" dy="94">Fri</text>
  </g>
  <rect x="30" y="20" width="10" height="10" rx="2" fill="#26a641"><animate attributeName="opacity" values="0.7;1;0.7" dur="3s" begin="1.11s" repeatCount="indefinite"/></rect>
  <rect x="30" y="33" width="10" height="10" rx="2" fill="#0e4429"><animate attributeName="opacity" values="0.7;1;0.7" dur="3s" begin="0.26s" repeatCount="indefinite"/></rect>
  <rect x="30" y="46" width="10" height="10" rx="2" fill="#26a641"><animate attributeName="opacity" values="0.7;1;0.7" dur="3s" begin="0.13s" repeatCount="indefinite"/></rect>
  <rect x="30" y="59" width="10" height="10" rx="2" fill="#161b22"></rect>
  <rect x="30" y="72" width="10" height="10" rx="2" fill="#161b22"></rect>
  <rect x="30" y="85" width="10" height="10" rx="2" fill="#0e4429"><animate attributeName="opacity" values="0.7;1;0.7" dur="3s" begin="0.35s" repeatCount="indefinite"/></rect>
  <rect x="30" y="98" width="10" height="10" rx="2" fill="#0e4429"><animate attributeName="opacity" values="0.7;1;0.7" dur="3s" begin="0.01s" repeatCount="indefinite"/></rect>
  <rect x="43" y="20" width="10" height="10" rx="2" fill="#161b22"></rect>
  <rect x="43" y="33" width="10" height="10" rx="2" fill="#161b22"></rect>
  <rect x="43" y="46" width="10" height="10" rx="2" fill="#006d32"><animate attributeName="opacity" values="0.7;1;0.7" dur="3s" begin="1.30s" repeatCount="indefinite"/></rect>
  <rect x="43" y="59" width="10" height="10" rx="2" fill="#0e4429"><animate attributeName="opacity" values="0.7;1;0.7" dur="3s" begin="0.18s" repeatCount="indefinite"/></rect>
  <rect x="43" y="72" width="10" height="10" rx="2" fill="#161b22"></rect>
  <rect x="43" y="85" width="10" height="10" rx="2" fill="#0e4429"><animate attributeName="opacity" values="0.7;1;0.7" dur="3s" begin="1.10s" repeatCount="indefinite"/></rect>
  <rect x="43" y="98" width="10" height="10" rx="2" fill="#0e4429"><animate attributeName="opacity" values="0.7;1;0.7" dur="3s" begin="1.25s" repeatCount="indefinite"/></rect>
  <rect x="56" y="20" width="10" height="10" rx="2" fill="#161b22"></rect>
  <rect x="56" y="33" width="10" height="10" rx="2" fill="#0e4429"><animate attributeName="opacity" values="0.7;1;0.7" dur="3s" begin="0.82s" repeatCount="indefinite"/></rect>
  <rect x="56" y="46" width="10" height="10" rx="2" fill="#0e4429"><animate attributeName="opacity" values="0.7;1;0.7" dur="3s" begin="1.98s" repeatCount="indefinite"/></rect>
  <rect x="56" y="59" width="10" height="10" rx="2" fill="#161b22"></rect>
  <rect x="56" y="72" width="10" height="10" rx="2" fill="#161b22"></rect>
  <rect x="56" y="85" width="10" height="10" rx="2" fill="#161b22"></rect>
  <rect x="56" y="98" width="10" height="10" rx="2" fill="#0e4429"><animate attributeName="opacity" values="0.7;1;0.7" dur="3s" begin="1.46s" repeatCount="indefinite"/></rect>
  <rect x="69" y="20" width="10" height="10" rx="2" fill="#161b22"></rect>
  <rect x="69" y="33" width="10" height="10" rx="2" fill="#0e4429"><animate attributeName="opacity" values="0.7;1;0.7" dur="3s" begin="1.13s" repeatCount="indefinite"/></rect>
  <rect x="69" y="46" width="10" height="10" rx="2" fill="#0e4429"><animate attributeName="opacity" values="0.7;1;0.7" dur="3s" begin="0.81s" repeatCount="indefinite"/></rect>
  <rect x="69" y="59" width="10" height="10" rx="2" fill="#161b22"></rect>
  <rect x="69" y="72" width="10" height="10" rx="2" fill="#161b22"></rect>
  <rect x="69" y="85" width="10" height="10" rx="2" fill="#0e4429"><animate attributeName="opacity" values="0.7;1;0.7" dur="3s" begin="0.40s" repeatCount="indefinite"/></rect>
  <rect x="69" y="98" width="10" height="10" rx="2" fill="#0e4429"><animate attributeName="opacity" values="0.7;1;0.7" dur="3s" begin="0.04s" repeatCount="indefinite"/></rect>
  <rect x="82" y="20" width="10" height="10" rx="2" fill="#0e4429"><animate attributeName="opacity" values="0.7;1;0.7" dur="3s" begin="0.17s" repeatCount="indefinite"/></rect>
  <rect x="82" y="33" width="10" height="10" rx="2" fill="#0e4429"><animate attributeName="opacity" values="0.7;1;0.7" dur="3s" begin="0.93s" repeatCount="indefinite"/></rect>
  <rect x="82" y="46" width="10" height="10" rx="2" fill="#006d32"><animate attributeName="opacity" values="0.7;1;0.7" dur="3s" begin="1.16s" repeatCount="indefinite"/></rect>
  <rect x="82" y="59" width="10" height="10" rx="2" fill="#006d32"><animate attributeName="opacity" values="0.7;1;0.7" dur="3s" begin="0.37s" repeatCount="indefinite"/></rect>
  <rect x="82" y="72" width="10" height="10" rx="2" fill="#006d32"><animate attributeName="opacity" values="0.7;1;0.7" dur="3s" begin="0.09s" repeatCount="indefinite"/></rect>
  <rect x="82" y="85" width="10" height="10" rx="2" fill="#0e4429"><animate attributeName="opacity" values="0.7;1;0.7" dur="3s" begin="1.10s" repeatCount="indefinite"/></rect>
  <rect x="82" y="98" width="10" height="10" rx="2" fill="#0e4429"><animate attributeName="opacity" values="0.7;1;0.7" dur="3s" begin="0.09s" repeatCount="indefinite"/></rect>
  <rect x="95" y="20" width="10" height="10" rx="2" fill="#161b22"></rect>
  <rect x="95" y="33" width="10" height="10" rx="2" fill="#161b22"></rect>
  <rect x="95" y="46" width="10" height="10" rx="2" fill="#161b22"></rect>
  <rect x="95" y="59" width="10" height="10" rx="2" fill="#0e4429"><animate attributeName="opacity" values="0.7;1;0.7" dur="3s" begin="0.93s" repeatCount="indefinite"/></rect>
  <rect x="95" y="72" width="10" height="10" rx="2" fill="#161b22"></rect>
  <rect x="95" y="85" width="10" height="10" rx="2" fill="#0e4429"><animate attributeName="opacity" values="0.7;1;0.7" dur="3s" begin="1.12s" repeatCount="indefinite"/></rect>
  <rect x="95" y="98" width="10" height="10" rx="2" fill="#0e4429"><animate attributeName="opacity" values="0.7;1;0.7" dur="3s" begin="0.00s" repeatCount="indefinite"/></rect>
  <rect x="108" y="20" width="10" height="10" rx="2" fill="#0e4429"><animate attributeName="opacity" values="0.7;1;0.7" dur="3s" begin="0.07s" repeatCount="indefinite"/></rect>
  <rect x="108" y="33" width="10" height="10" rx="2" fill="#161b22"></rect>
  <rect x="108" y="46" width="10" height="10" rx="2" fill="#0e4429"><animate attributeName="opacity" values="0.7;1;0.7" dur="3s" begin="0.30s" repeatCount="indefinite"/></rect>
  <rect x="108" y="59" width="10" height="10" rx="2" fill="#161b22"></rect>
  <rect x="108" y="72" width="10" height="10" rx="2" fill="#0e4429"><animate attributeName="opacity" values="0.7;1;0.7" dur="3s" begin="0.74s" repeatCount="indefinite"/></rect>
  <rect x="108" y="85" width="10" height="10" rx="2" fill="#161b22"></rect>
  <rect x="108" y="98" width="10" height="10" rx="2" fill="#0e4429"><animate attributeName="opacity" values="0.7;1;0.7" dur="3s" begin="1.10s" repeatCount="indefinite"/></rect>
  <rect x="121" y="20" width="10" height="10" rx="2" fill="#0e4429"><animate attributeName="opacity" values="0.7;1;0.7" dur="3s" begin="0.29s" repeatCount="indefinite"/></rect>
  <rect x="121" y="33" width="10" height="10" rx="2" fill="#0e4429"><animate attributeName="opacity" values="0.7;1;0.7" dur="3s" begin="0.01s" repeatCount="indefinite"/></rect>
  <rect x="121" y="46" width="10" height="10" rx="2" fill="#161b22"></rect>
  <rect x="121" y="59" width="10" height="10" rx="2" fill="#0e4429"><animate attributeName="opacity" values="0.7;1;0.7" dur="3s" begin="0.62s" repeatCount="indefinite"/></rect>
  <rect x="121" y="72" width="10" height="10" rx="2" fill="#161b22"></rect>
  <rect x="121" y="85" width="10" height="10" rx="2" fill="#161b22"></rect>
  <rect x="121" y="98" width="10" height="10" rx="2" fill="#161b22"></rect>
  <rect x="134" y="20" width="10" height="10" rx="2" fill="#161b22"></rect>
  <rect x="134" y="33" width="10" height="10" rx="2" fill="#161b22"></rect>
  <rect x="134" y="46" width="10" height="10" rx="2" fill="#161b22"></rect>
  <rect x="134" y="59" width="10" height="10" rx="2" fill="#161b22"></rect>
  <rect x="134" y="72" width="10" height="10" rx="2" fill="#006d32"><animate attributeName="opacity" values="0.7;1;0.7" dur="3s" begin="0.64s" repeatCount="indefinite"/></rect>
  <rect x="134" y="85" width="10" height="10" rx="2" fill="#161b22"></rect>
  <rect x="134" y="98" width="10" height="10" rx="2" fill="#0e4429"><animate attributeName="opacity" values="0.7;1;0.7" dur="3s" begin="0.53s" repeatCount="indefinite"/></rect>
  <rect x="147" y="20" width="10" height="10" rx="2" fill="#161b22"></rect>
  <rect x="147" y="33" width="10" height="10" rx="2" fill="#161b22"></rect>
  <rect x="147" y="46" width="10" height="10" rx="2" fill="#161b22"></rect>
  <rect x="147" y="59" width="10" height="10" rx="2" fill="#0e4429"><animate attributeName="opacity" values="0.7;1;0.7" dur="3s" begin="0.15s" repeatCount="indefinite"/></rect>
  <rect x="147" y="72" width="10" height="10" rx="2" fill="#0e4429"><animate attributeName="opacity" values="0.7;1;0.7" dur="3s" begin="0.62s" repeatCount="indefinite"/></rect>
  <rect x="147" y="85" width="10" height="10" rx="2" fill="#161b22"></rect>
  <rect x="147" y="98" width="10" height="10" rx="2" fill="#0e4429"><animate attributeName="opacity" values="0.7;1;0.7" dur="3s" begin="1.48s" repeatCount="indefinite"/></rect>
  <rect x="160" y="20" width="10" height="10" rx="2" fill="#0e4429"><animate attributeName="opacity" values="0.7;1;0.7" dur="3s" begin="1.52s" repeatCount="indefinite"/></rect>
  <rect x="160" y="33" width="10" height="10" rx="2" fill="#161b22"></rect>
  <rect x="160" y="46" width="10" height="10" rx="2" fill="#0e4429"><animate attributeName="opacity" values="0.7;1;0.7" dur="3s" begin="1.40s" repeatCount="indefinite"/></rect>
  <rect x="160" y="59" width="10" height="10" rx="2" fill="#0e4429"><animate attributeName="opacity" values="0.7;1;0.7" dur="3s" begin="1.41s" repeatCount="indefinite"/></rect>
  <rect x="160" y="72" width="10" height="10" rx="2" fill="#161b22"></rect>
  <rect x="160" y="85" width="10" height="10" rx="2" fill="#161b22"></rect>
  <rect x="160" y="98" width="10" height="10" rx="2" fill="#161b22"></rect>
  <rect x="173" y="20" width="10" height="10" rx="2" fill="#161b22"></rect>
  <rect x="173" y="33" width="10" height="10" rx="2" fill="#161b22"></rect>
  <rect x="173" y="46" width="10" height="10" rx="2" fill="#161b22"></rect>
  <rect x="173" y="59" width="10" height="10" rx="2" fill="#0e4429"><animate attributeName="opacity" values="0.7;1;0.7" dur="3s" begin="0.62s" repeatCount="indefinite"/></rect>
  <rect x="173" y="72" width="10" height="10" rx="2" fill="#0e4429"><animate attributeName="opacity" values="0.7;1;0.7" dur="3s" begin="0.24s" repeatCount="indefinite"/></rect>
  <rect x="173" y="85" width="10" height="10" rx="2" fill="#0e4429"><animate attributeName="opacity" values="0.7;1;0.7" dur="3s" begin="0.47s" repeatCount="indefinite"/></rect>
  <rect x="173" y="98" width="10" height="10" rx="2" fill="#161b22"></rect>
  <rect x="186" y="20" width="10" height="10" rx="2" fill="#0e4429"><animate attributeName="opacity" values="0.7;1;0.7" dur="3s" begin="0.39s" repeatCount="indefinite"/></rect>
  <rect x="186" y="33" width="10" height="10" rx="2" fill="#0e4429"><animate attributeName="opacity" values="0.7;1;0.7" dur="3s" begin="0.13s" repeatCount="indefinite"/></rect>
  <rect x="186" y="46" width="10" height="10" rx="2" fill="#0e4429"><animate attributeName="opacity" values="0.7;1;0.7" dur="3s" begin="1.73s" repeatCount="indefinite"/></rect>
  <rect x="186" y="59" width="10" height="10" rx="2" fill="#161b22"></rect>
  <rect x="186" y="72" width="10" height="10" rx="2" fill="#161b22"></rect>
  <rect x="186" y="85" width="10" height="10" rx="2" fill="#0e4429"><animate attributeName="opacity" values="0.7;1;0.7" dur="3s" begin="1.04s" repeatCount="indefinite"/></rect>
  <rect x="186" y="98" width="10" height="10" rx="2" fill="#006d32"><animate attributeName="opacity" values="0.7;1;0.7" dur="3s" begin="0.91s" repeatCount="indefinite"/></rect>
  <rect x="199" y="20" width="10" height="10" rx="2" fill="#006d32"><animate attributeName="opacity" values="0.7;1;0.7" dur="3s" begin="0.59s" repeatCount="indefinite"/></rect>
  <rect x="199" y="33" width="10" height="10" rx="2" fill="#0e4429"><animate attributeName="opacity" values="0.7;1;0.7" dur="3s" begin="1.28s" repeatCount="indefinite"/></rect>
  <rect x="199" y="46" width="10" height="10" rx="2" fill="#0e4429"><animate attributeName="opacity" values="0.7;1;0.7" dur="3s" begin="1.07s" repeatCount="indefinite"/></rect>
  <rect x="199" y="59" width="10" height="10" rx="2" fill="#006d32"><animate attributeName="opacity" values="0.7;1;0.7" dur="3s" begin="1.65s" repeatCount="indefinite"/></rect>
  <rect x="199" y="72" width="10" height="10" rx="2" fill="#0e4429"><animate attributeName="opacity" values="0.7;1;0.7" dur="3s" begin="0.07s" repeatCount="indefinite"/></rect>
  <rect x="199" y="85" width="10" height="10" rx="2" fill="#161b22"></rect>
  <rect x="199" y="98" width="10" height="10" rx="2" fill="#0e4429"><animate attributeName="opacity" values="0.7;1;0.7" dur="3s" begin="1.20s" repeatCount="indefinite"/></rect>
  <rect x="212" y="20" width="10" height="10" rx="2" fill="#006d32"><animate attributeName="opacity" values="0.7;1;0.7" dur="3s" begin="0.52s" repeatCount="indefinite"/></rect>
  <rect x="212" y="33" width="10" height="10" rx="2" fill="#0e4429"><animate attributeName="opacity" values="0.7;1;0.7" dur="3s" begin="0.52s" repeatCount="indefinite"/></rect>
  <rect x="212" y="46" width="10" height="10" rx="2" fill="#161b22"></rect>
  <rect x="212" y="59" width="10" height="10" rx="2" fill="#161b22"></rect>
  <rect x="212" y="72" width="10" height="10" rx="2" fill="#0e4429"><animate attributeName="opacity" values="0.7;1;0.7" dur="3s" begin="0.33s" repeatCount="indefinite"/></rect>
  <rect x="212" y="85" width="10" height="10" rx="2" fill="#0e4429"><animate attributeName="opacity" values="0.7;1;0.7" dur="3s" begin="1.18s" repeatCount="indefinite"/></rect>
  <rect x="212" y="98" width="10" height="10" rx="2" fill="#0e4429"><animate attributeName="opacity" values="0.7;1;0.7" dur="3s" begin="1.60s" repeatCount="indefinite"/></rect>
  <rect x="225" y="20" width="10" height="10" rx="2" fill="#161b22"></rect>
  <rect x="225" y="33" width="10" height="10" rx="2" fill="#161b22"></rect>
  <rect x="225" y="46" width="10" height="10" rx="2" fill="#161b22"></rect>
  <rect x="225" y="59" width="10" height="10" rx="2" fill="#161b22"></rect>
  <rect x="225" y="72" width="10" height="10" rx="2" fill="#006d32"><animate attributeName="opacity" values="0.7;1;0.7" dur="3s" begin="1.13s" repeatCount="indefinite"/></rect>
  <rect x="225" y="85" width="10" height="10" rx="2" fill="#161b22"></rect>
  <rect x="225" y="98" width="10" height="10" rx="2" fill="#161b22"></rect>
  <rect x="238" y="20" width="10" height="10" rx="2" fill="#161b22"></rect>
  <rect x="238" y="33" width="10" height="10" rx="2" fill="#0e4429"><animate attributeName="opacity" values="0.7;1;0.7" dur="3s" begin="0.23s" repeatCount="indefinite"/></rect>
  <rect x="238" y="46" width="10" height="10" rx="2" fill="#161b22"></rect>
  <rect x="238" y="59" width="10" height="10" rx="2" fill="#161b22"></rect>
  <rect x="238" y="72" width="10" height="10" rx="2" fill="#161b22"></rect>
  <rect x="238" y="85" width="10" height="10" rx="2" fill="#0e4429"><animate attributeName="opacity" values="0.7;1;0.7" dur="3s" begin="0.24s" repeatCount="indefinite"/></rect>
  <rect x="238" y="98" width="10" height="10" rx="2" fill="#0e4429"><animate attributeName="opacity" values="0.7;1;0.7" dur="3s" begin="0.88s" repeatCount="indefinite"/></rect>
  <rect x="251" y="20" width="10" height="10" rx="2" fill="#161b22"></rect>
  <rect x="251" y="33" width="10" height="10" rx="2" fill="#161b22"></rect>
  <rect x="251" y="46" width="10" height="10" rx="2" fill="#161b22"></rect>
  <rect x="251" y="59" width="10" height="10" rx="2" fill="#0e4429"><animate attributeName="opacity" values="0.7;1;0.7" dur="3s" begin="0.15s" repeatCount="indefinite"/></rect>
  <rect x="251" y="72" width="10" height="10" rx="2" fill="#0e4429"><animate attributeName="opacity" values="0.7;1;0.7" dur="3s" begin="0.71s" repeatCount="indefinite"/></rect>
  <rect x="251" y="85" width="10" height="10" rx="2" fill="#0e4429"><animate attributeName="opacity" values="0.7;1;0.7" dur="3s" begin="1.59s" repeatCount="indefinite"/></rect>
  <rect x="251" y="98" width="10" height="10" rx="2" fill="#0e4429"><animate attributeName="opacity" values="0.7;1;0.7" dur="3s" begin="0.08s" repeatCount="indefinite"/></rect>
  <rect x="264" y="20" width="10" height="10" rx="2" fill="#161b22"></rect>
  <rect x="264" y="33" width="10" height="10" rx="2" fill="#0e4429"><animate attributeName="opacity" values="0.7;1;0.7" dur="3s" begin="1.95s" repeatCount="indefinite"/></rect>
  <rect x="264" y="46" width="10" height="10" rx="2" fill="#161b22"></rect>
  <rect x="264" y="59" width="10" height="10" rx="2" fill="#161b22"></rect>
  <rect x="264" y="72" width="10" height="10" rx="2" fill="#161b22"></rect>
  <rect x="264" y="85" width="10" height="10" rx="2" fill="#161b22"></rect>
  <rect x="264" y="98" width="10" height="10" rx="2" fill="#0e4429"><animate attributeName="opacity" values="0.7;1;0.7" dur="3s" begin="1.36s" repeatCount="indefinite"/></rect>
  <rect x="277" y="20" width="10" height="10" rx="2" fill="#161b22"></rect>
  <rect x="277" y="33" width="10" height="10" rx="2" fill="#0e4429"><animate attributeName="opacity" values="0.7;1;0.7" dur="3s" begin="1.75s" repeatCount="indefinite"/></rect>
  <rect x="277" y="46" width="10" height="10" rx="2" fill="#0e4429"><animate attributeName="opacity" values="0.7;1;0.7" dur="3s" begin="1.07s" repeatCount="indefinite"/></rect>
  <rect x="277" y="59" width="10" height="10" rx="2" fill="#161b22"></rect>
  <rect x="277" y="72" width="10" height="10" rx="2" fill="#161b22"></rect>
  <rect x="277" y="85" width="10" height="10" rx="2" fill="#161b22"></rect>
  <rect x="277" y="98" width="10" height="10" rx="2" fill="#006d32"><animate attributeName="opacity" values="0.7;1;0.7" dur="3s" begin="1.45s" repeatCount="indefinite"/></rect>
  <rect x="290" y="20" width="10" height="10" rx="2" fill="#0e4429"><animate attributeName="opacity" values="0.7;1;0.7" dur="3s" begin="0.74s" repeatCount="indefinite"/></rect>
  <rect x="290" y="33" width="10" height="10" rx="2" fill="#0e4429"><animate attributeName="opacity" values="0.7;1;0.7" dur="3s" begin="1.24s" repeatCount="indefinite"/></rect>
  <rect x="290" y="46" width="10" height="10" rx="2" fill="#161b22"></rect>
  <rect x="290" y="59" width="10" height="10" rx="2" fill="#161b22"></rect>
  <rect x="290" y="72" width="10" height="10" rx="2" fill="#161b22"></rect>
  <rect x="290" y="85" width="10" height="10" rx="2" fill="#161b22"></rect>
  <rect x="290" y="98" width="10" height="10" rx="2" fill="#0e4429"><animate attributeName="opacity" values="0.7;1;0.7" dur="3s" begin="0.35s" repeatCount="indefinite"/></rect>
  <rect x="303" y="20" width="10" height="10" rx="2" fill="#161b22"></rect>
  <rect x="303" y="33" width="10" height="10" rx="2" fill="#0e4429"><animate attributeName="opacity" values="0.7;1;0.7" dur="3s" begin="0.16s" repeatCount="indefinite"/></rect>
  <rect x="303" y="46" width="10" height="10" rx="2" fill="#006d32"><animate attributeName="opacity" values="0.7;1;0.7" dur="3s" begin="0.36s" repeatCount="indefinite"/></rect>
  <rect x="303" y="59" width="10" height="10" rx="2" fill="#006d32"><animate attributeName="opacity" values="0.7;1;0.7" dur="3s" begin="0.57s" repeatCount="indefinite"/></rect>
  <rect x="303" y="72" width="10" height="10" rx="2" fill="#161b22"></rect>
  <rect x="303" y="85" width="10" height="10" rx="2" fill="#161b22"></rect>
  <rect x="303" y="98" width="10" height="10" rx="2" fill="#0e4429"><animate attributeName="opacity" values="0.7;1;0.7" dur="3s" begin="1.76s" repeatCount="indefinite"/></rect>
  <rect x="316" y="20" width="10" height="10" rx="2" fill="#0e4429"><animate attributeName="opacity" values="0.7;1;0.7" dur="3s" begin="0.56s" repeatCount="indefinite"/></rect>
  <rect x="316" y="33" width="10" height="10" rx="2" fill="#161b22"></rect>
  <rect x="316" y="46" width="10" height="10" rx="2" fill="#0e4429"><animate attributeName="opacity" values="0.7;1;0.7" dur="3s" begin="1.82s" repeatCount="indefinite"/></rect>
  <rect x="316" y="59" width="10" height="10" rx="2" fill="#161b22"></rect>
  <rect x="316" y="72" width="10" height="10" rx="2" fill="#161b22"></rect>
  <rect x="316" y="85" width="10" height="10" rx="2" fill="#0e4429"><animate attributeName="opacity" values="0.7;1;0.7" dur="3s" begin="1.86s" repeatCount="indefinite"/></rect>
  <rect x="316" y="98" width="10" height="10" rx="2" fill="#161b22"></rect>
  <rect x="329" y="20" width="10" height="10" rx="2" fill="#161b22"></rect>
  <rect x="329" y="33" width="10" height="10" rx="2" fill="#0e4429"><animate attributeName="opacity" values="0.7;1;0.7" dur="3s" begin="0.72s" repeatCount="indefinite"/></rect>
  <rect x="329" y="46" width="10" height="10" rx="2" fill="#0e4429"><animate attributeName="opacity" values="0.7;1;0.7" dur="3s" begin="1.22s" repeatCount="indefinite"/></rect>
  <rect x="329" y="59" width="10" height="10" rx="2" fill="#161b22"></rect>
  <rect x="329" y="72" width="10" height="10" rx="2" fill="#161b22"></rect>
  <rect x="329" y="85" width="10" height="10" rx="2" fill="#161b22"></rect>
  <rect x="329" y="98" width="10" height="10" rx="2" fill="#0e4429"><animate attributeName="opacity" values="0.7;1;0.7" dur="3s" begin="0.23s" repeatCount="indefinite"/></rect>
  <rect x="342" y="20" width="10" height="10" rx="2" fill="#161b22"></rect>
  <rect x="342" y="33" width="10" height="10" rx="2" fill="#161b22"></rect>
  <rect x="342" y="46" width="10" height="10" rx="2" fill="#161b22"></rect>
  <rect x="342" y="59" width="10" height="10" rx="2" fill="#161b22"></rect>
  <rect x="342" y="72" width="10" height="10" rx="2" fill="#161b22"></rect>
  <rect x="342" y="85" width="10" height="10" rx="2" fill="#161b22"></rect>
  <rect x="342" y="98" width="10" height="10" rx="2" fill="#161b22"></rect>
  <rect x="355" y="20" width="10" height="10" rx="2" fill="#161b22"></rect>
  <rect x="355" y="33" width="10" height="10" rx="2" fill="#0e4429"><animate attributeName="opacity" values="0.7;1;0.7" dur="3s" begin="0.27s" repeatCount="indefinite"/></rect>
  <rect x="355" y="46" width="10" height="10" rx="2" fill="#161b22"></rect>
  <rect x="355" y="59" width="10" height="10" rx="2" fill="#0e4429"><animate attributeName="opacity" values="0.7;1;0.7" dur="3s" begin="1.62s" repeatCount="indefinite"/></rect>
  <rect x="355" y="72" width="10" height="10" rx="2" fill="#0e4429"><animate attributeName="opacity" values="0.7;1;0.7" dur="3s" begin="0.60s" repeatCount="indefinite"/></rect>
  <rect x="355" y="85" width="10" height="10" rx="2" fill="#161b22"></rect>
  <rect x="355" y="98" width="10" height="10" rx="2" fill="#161b22"></rect>
  <rect x="368" y="20" width="10" height="10" rx="2" fill="#161b22"></rect>
  <rect x="368" y="33" width="10" height="10" rx="2" fill="#161b22"></rect>
  <rect x="368" y="46" width="10" height="10" rx="2" fill="#161b22"></rect>
  <rect x="368" y="59" width="10" height="10" rx="2" fill="#161b22"></rect>
  <rect x="368" y="72" width="10" height="10" rx="2" fill="#161b22"></rect>
  <rect x="368" y="85" width="10" height="10" rx="2" fill="#161b22"></rect>
  <rect x="368" y="98" width="10" height="10" rx="2" fill="#161b22"></rect>
  <rect x="381" y="20" width="10" height="10" rx="2" fill="#161b22"></rect>
  <rect x="381" y="33" width="10" height="10" rx="2" fill="#161b22"></rect>
  <rect x="381" y="46" width="10" height="10" rx="2" fill="#161b22"></rect>
  <rect x="381" y="59" width="10" height="10" rx="2" fill="#161b22"></rect>
  <rect x="381" y="72" width="10" height="10" rx="2" fill="#161b22"></rect>
  <rect x="381" y="85" width="10" height="10" rx="2" fill="#006d32"><animate attributeName="opacity" values="0.7;1;0.7" dur="3s" begin="0.02s" repeatCount="indefinite"/></rect>
  <rect x="381" y="98" width="10" height="10" rx="2" fill="#161b22"></rect>
  <rect x="394" y="20" width="10" height="10" rx="2" fill="#0e4429"><animate attributeName="opacity" values="0.7;1;0.7" dur="3s" begin="1.83s" repeatCount="indefinite"/></rect>
  <rect x="394" y="33" width="10" height="10" rx="2" fill="#161b22"></rect>
  <rect x="394" y="46" width="10" height="10" rx="2" fill="#161b22"></rect>
  <rect x="394" y="59" width="10" height="10" rx="2" fill="#161b22"></rect>
  <rect x="394" y="72" width="10" height="10" rx="2" fill="#161b22"></rect>
  <rect x="394" y="85" width="10" height="10" rx="2" fill="#161b22"></rect>
  <rect x="394" y="98" width="10" height="10" rx="2" fill="#161b22"></rect>
  <rect x="407" y="20" width="10" height="10" rx="2" fill="#161b22"></rect>
  <rect x="407" y="33" width="10" height="10" rx="2" fill="#161b22"></rect>
  <rect x="407" y="46" width="10" height="10" rx="2" fill="#161b22"></rect>
  <rect x="407" y="59" width="10" height="10" rx="2" fill="#161b22"></rect>
  <rect x="407" y="72" width="10" height="10" rx="2" fill="#161b22"></rect>
  <rect x="407" y="85" width="10" height="10" rx="2" fill="#161b22"></rect>
  <rect x="407" y="98" width="10" height="10" rx="2" fill="#161b22"></rect>
  <rect x="420" y="20" width="10" height="10" rx="2" fill="#161b22"></rect>
  <rect x="420" y="33" width="10" height="10" rx="2" fill="#161b22"></rect>
  <rect x="420" y="46" width="10" height="10" rx="2" fill="#161b22"></rect>
  <rect x="420" y="59" width="10" height="10" rx="2" fill="#161b22"></rect>
  <rect x="420" y="72" width="10" height="10" rx="2" fill="#161b22"></rect>
  <rect x="420" y="85" width="10" height="10" rx="2" fill="#161b22"></rect>
  <rect x="420" y="98" width="10" height="10" rx="2" fill="#161b22"></rect>
  <rect x="433" y="20" width="10" height="10" rx="2" fill="#161b22"></rect>
  <rect x="433" y="33" width="10" height="10" rx="2" fill="#161b22"></rect>
  <rect x="433" y="46" width="10" height="10" rx="2" fill="#161b22"></rect>
  <rect x="433" y="59" width="10" height="10" rx="2" fill="#161b22"></rect>
  <rect x="433" y="72" width="10" height="10" rx="2" fill="#161b22"></rect>
  <rect x="433" y="85" width="10" height="10" rx="2" fill="#161b22"></rect>
  <rect x="433" y="98" width="10" height="10" rx="2" fill="#161b22"></rect>
  <rect x="446" y="20" width="10" height="10" rx="2" fill="#161b22"></rect>
  <rect x="446" y="33" width="10" height="10" rx="2" fill="#161b22"></rect>
  <rect x="446" y="46" width="10" height="10" rx="2" fill="#161b22"></rect>
  <rect x="446" y="59" width="10" height="10" rx="2" fill="#161b22"></rect>
  <rect x="446" y="72" width="10" height="10" rx="2" fill="#161b22"></rect>
  <rect x="446" y="85" width="10" height="10" rx="2" fill="#161b22"></rect>
  <rect x="446" y="98" width="10" height="10" rx="2" fill="#161b22"></rect>
  <rect x="459" y="20" width="10" height="10" rx="2" fill="#0e4429"><animate attributeName="opacity" values="0.7;1;0.7" dur="3s" begin="1.99s" repeatCount="indefinite"/></rect>
  <rect x="459" y="33" width="10" height="10" rx="2" fill="#006d32"><animate attributeName="opacity" values="0.7;1;0.7" dur="3s" begin="0.21s" repeatCount="indefinite"/></rect>
  <rect x="459" y="46" width="10" height="10" rx="2" fill="#006d32"><animate attributeName="opacity" values="0.7;1;0.7" dur="3s" begin="0.33s" repeatCount="indefinite"/></rect>
  <rect x="459" y="59" width="10" height="10" rx="2" fill="#006d32"><animate attributeName="opacity" values="0.7;1;0.7" dur="3s" begin="1.04s" repeatCount="indefinite"/></rect>
  <rect x="459" y="72" width="10" height="10" rx="2" fill="#39d353"><animate attributeName="opacity" values="0.7;1;0.7" dur="3s" begin="1.05s" repeatCount="indefinite"/></rect>
  <rect x="459" y="85" width="10" height="10" rx="2" fill="#161b22"></rect>
  <rect x="459" y="98" width="10" height="10" rx="2" fill="#161b22"></rect>
  <rect x="472" y="20" width="10" height="10" rx="2" fill="#161b22"></rect>
  <rect x="472" y="33" width="10" height="10" rx="2" fill="#161b22"></rect>
  <rect x="472" y="46" width="10" height="10" rx="2" fill="#161b22"></rect>
  <rect x="472" y="59" width="10" height="10" rx="2" fill="#161b22"></rect>
  <rect x="472" y="72" width="10" height="10" rx="2" fill="#161b22"></rect>
  <rect x="472" y="85" width="10" height="10" rx="2" fill="#161b22"></rect>
  <rect x="472" y="98" width="10" height="10" rx="2" fill="#161b22"></rect>
  <rect x="485" y="20" width="10" height="10" rx="2" fill="#161b22"></rect>
  <rect x="485" y="33" width="10" height="10" rx="2" fill="#161b22"></rect>
  <rect x="485" y="46" width="10" height="10" rx="2" fill="#161b22"></rect>
  <rect x="485" y="59" width="10" height="10" rx="2" fill="#0e4429"><animate attributeName="opacity" values="0.7;1;0.7" dur="3s" begin="1.20s" repeatCount="indefinite"/></rect>
  <rect x="485" y="72" width="10" height="10" rx="2" fill="#161b22"></rect>
  <rect x="485" y="85" width="10" height="10" rx="2" fill="#161b22"></rect>
  <rect x="485" y="98" width="10" height="10" rx="2" fill="#161b22"></rect>
  <rect x="498" y="20" width="10" height="10" rx="2" fill="#161b22"></rect>
  <rect x="498" y="33" width="10" height="10" rx="2" fill="#161b22"></rect>
  <rect x="498" y="46" width="10" height="10" rx="2" fill="#161b22"></rect>
  <rect x="498" y="59" width="10" height="10" rx="2" fill="#161b22"></rect>
  <rect x="498" y="72" width="10" height="10" rx="2" fill="#161b22"></rect>
  <rect x="498" y="85" width="10" height="10" rx="2" fill="#161b22"></rect>
  <rect x="498" y="98" width="10" height="10" rx="2" fill="#161b22"></rect>
  <rect x="511" y="20" width="10" height="10" rx="2" fill="#39d353"><animate attributeName="opacity" values="0.7;1;0.7" dur="3s" begin="1.05s" repeatCount="indefinite"/></rect>
  <rect x="511" y="33" width="10" height="10" rx="2" fill="#39d353"><animate attributeName="opacity" values="0.7;1;0.7" dur="3s" begin="0.07s" repeatCount="indefinite"/></rect>
  <rect x="511" y="46" width="10" height="10" rx="2" fill="#161b22"></rect>
  <rect x="511" y="59" width="10" height="10" rx="2" fill="#161b22"></rect>
  <rect x="511" y="72" width="10" height="10" rx="2" fill="#161b22"></rect>
  <rect x="511" y="85" width="10" height="10" rx="2" fill="#161b22"></rect>
  <rect x="511" y="98" width="10" height="10" rx="2" fill="#0e4429"><animate attributeName="opacity" values="0.7;1;0.7" dur="3s" begin="0.30s" repeatCount="indefinite"/></rect>
  <rect x="524" y="20" width="10" height="10" rx="2" fill="#161b22"></rect>
  <rect x="524" y="33" width="10" height="10" rx="2" fill="#161b22"></rect>
  <rect x="524" y="46" width="10" height="10" rx="2" fill="#0e4429"><animate attributeName="opacity" values="0.7;1;0.7" dur="3s" begin="0.30s" repeatCount="indefinite"/></rect>
  <rect x="524" y="59" width="10" height="10" rx="2" fill="#161b22"></rect>
  <rect x="524" y="72" width="10" height="10" rx="2" fill="#161b22"></rect>
  <rect x="524" y="85" width="10" height="10" rx="2" fill="#161b22"></rect>
  <rect x="524" y="98" width="10" height="10" rx="2" fill="#161b22"></rect>
  <rect x="537" y="20" width="10" height="10" rx="2" fill="#161b22"></rect>
  <rect x="537" y="33" width="10" height="10" rx="2" fill="#161b22"></rect>
  <rect x="537" y="46" width="10" height="10" rx="2" fill="#161b22"></rect>
  <rect x="537" y="59" width="10" height="10" rx="2" fill="#161b22"></rect>
  <rect x="537" y="72" width="10" height="10" rx="2" fill="#0e4429"><animate attributeName="opacity" values="0.7;1;0.7" dur="3s" begin="1.24s" repeatCount="indefinite"/></rect>
  <rect x="537" y="85" width="10" height="10" rx="2" fill="#161b22"></rect>
  <rect x="537" y="98" width="10" height="10" rx="2" fill="#161b22"></rect>
  <rect x="550" y="20" width="10" height="10" rx="2" fill="#161b22"></rect>
  <rect x="550" y="33" width="10" height="10" rx="2" fill="#161b22"></rect>
  <rect x="550" y="46" width="10" height="10" rx="2" fill="#161b22"></rect>
  <rect x="550" y="59" width="10" height="10" rx="2" fill="#0e4429"><animate attributeName="opacity" values="0.7;1;0.7" dur="3s" begin="1.69s" repeatCount="indefinite"/></rect>
  <rect x="550" y="72" width="10" height="10" rx="2" fill="#161b22"></rect>
  <rect x="550" y="85" width="10" height="10" rx="2" fill="#161b22"></rect>
  <rect x="550" y="98" width="10" height="10" rx="2" fill="#161b22"></rect>
  <rect x="563" y="20" width="10" height="10" rx="2" fill="#161b22"></rect>
  <rect x="563" y="33" width="10" height="10" rx="2" fill="#0e4429"><animate attributeName="opacity" values="0.7;1;0.7" dur="3s" begin="0.75s" repeatCount="indefinite"/></rect>
  <rect x="563" y="46" width="10" height="10" rx="2" fill="#0e4429"><animate attributeName="opacity" values="0.7;1;0.7" dur="3s" begin="0.35s" repeatCount="indefinite"/></rect>
  <rect x="563" y="59" width="10" height="10" rx="2" fill="#161b22"></rect>
  <rect x="563" y="72" width="10" height="10" rx="2" fill="#0e4429"><animate attributeName="opacity" values="0.7;1;0.7" dur="3s" begin="0.28s" repeatCount="indefinite"/></rect>
  <rect x="563" y="85" width="10" height="10" rx="2" fill="#161b22"></rect>
  <rect x="563" y="98" width="10" height="10" rx="2" fill="#161b22"></rect>
  <rect x="576" y="20" width="10" height="10" rx="2" fill="#161b22"></rect>
  <rect x="576" y="33" width="10" height="10" rx="2" fill="#0e4429"><animate attributeName="opacity" values="0.7;1;0.7" dur="3s" begin="1.72s" repeatCount="indefinite"/></rect>
  <rect x="576" y="46" width="10" height="10" rx="2" fill="#161b22"></rect>
  <rect x="576" y="59" width="10" height="10" rx="2" fill="#161b22"></rect>
  <rect x="576" y="72" width="10" height="10" rx="2" fill="#161b22"></rect>
  <rect x="576" y="85" width="10" height="10" rx="2" fill="#161b22"></rect>
  <rect x="576" y="98" width="10" height="10" rx="2" fill="#161b22"></rect>
  <rect x="589" y="20" width="10" height="10" rx="2" fill="#006d32"><animate attributeName="opacity" values="0.7;1;0.7" dur="3s" begin="0.38s" repeatCount="indefinite"/></rect>
  <rect x="589" y="33" width="10" height="10" rx="2" fill="#161b22"></rect>
  <rect x="589" y="46" width="10" height="10" rx="2" fill="#161b22"></rect>
  <rect x="589" y="59" width="10" height="10" rx="2" fill="#006d32"><animate attributeName="opacity" values="0.7;1;0.7" dur="3s" begin="0.06s" repeatCount="indefinite"/></rect>
  <rect x="589" y="72" width="10" height="10" rx="2" fill="#161b22"></rect>
  <rect x="589" y="85" width="10" height="10" rx="2" fill="#161b22"></rect>
  <rect x="589" y="98" width="10" height="10" rx="2" fill="#161b22"></rect>
  <rect x="602" y="20" width="10" height="10" rx="2" fill="#161b22"></rect>
  <rect x="602" y="33" width="10" height="10" rx="2" fill="#161b22"></rect>
  <rect x="602" y="46" width="10" height="10" rx="2" fill="#161b22"></rect>
  <rect x="602" y="59" width="10" height="10" rx="2" fill="#39d353"><animate attributeName="opacity" values="0.7;1;0.7" dur="3s" begin="1.04s" repeatCount="indefinite"/></rect>
  <rect x="602" y="72" width="10" height="10" rx="2" fill="#0e4429"><animate attributeName="opacity" values="0.7;1;0.7" dur="3s" begin="0.90s" repeatCount="indefinite"/></rect>
  <rect x="602" y="85" width="10" height="10" rx="2" fill="#006d32"><animate attributeName="opacity" values="0.7;1;0.7" dur="3s" begin="0.01s" repeatCount="indefinite"/></rect>
  <rect x="602" y="98" width="10" height="10" rx="2" fill="#161b22"></rect>
  <rect x="615" y="20" width="10" height="10" rx="2" fill="#161b22"></rect>
  <rect x="615" y="33" width="10" height="10" rx="2" fill="#161b22"></rect>
  <rect x="615" y="46" width="10" height="10" rx="2" fill="#161b22"></rect>
  <rect x="615" y="59" width="10" height="10" rx="2" fill="#161b22"></rect>
  <rect x="615" y="72" width="10" height="10" rx="2" fill="#006d32"><animate attributeName="opacity" values="0.7;1;0.7" dur="3s" begin="1.64s" repeatCount="indefinite"/></rect>
  <rect x="615" y="85" width="10" height="10" rx="2" fill="#161b22"></rect>
  <rect x="615" y="98" width="10" height="10" rx="2" fill="#161b22"></rect>
  <rect x="628" y="20" width="10" height="10" rx="2" fill="#161b22"></rect>
  <rect x="628" y="33" width="10" height="10" rx="2" fill="#0e4429"><animate attributeName="opacity" values="0.7;1;0.7" dur="3s" begin="1.58s" repeatCount="indefinite"/></rect>
  <rect x="628" y="46" width="10" height="10" rx="2" fill="#161b22"></rect>
  <rect x="628" y="59" width="10" height="10" rx="2" fill="#161b22"></rect>
  <rect x="628" y="72" width="10" height="10" rx="2" fill="#0e4429"><animate attributeName="opacity" values="0.7;1;0.7" dur="3s" begin="1.02s" repeatCount="indefinite"/></rect>
  <rect x="628" y="85" width="10" height="10" rx="2" fill="#161b22"></rect>
  <rect x="628" y="98" width="10" height="10" rx="2" fill="#0e4429"><animate attributeName="opacity" values="0.7;1;0.7" dur="3s" begin="1.44s" repeatCount="indefinite"/></rect>
  <rect x="641" y="20" width="10" height="10" rx="2" fill="#161b22"></rect>
  <rect x="641" y="33" width="10" height="10" rx="2" fill="#0e4429"><animate attributeName="opacity" values="0.7;1;0.7" dur="3s" begin="0.52s" repeatCount="indefinite"/></rect>
  <rect x="641" y="46" width="10" height="10" rx="2" fill="#161b22"></rect>
  <rect x="641" y="59" width="10" height="10" rx="2" fill="#0e4429"><animate attributeName="opacity" values="0.7;1;0.7" dur="3s" begin="1.87s" repeatCount="indefinite"/></rect>
  <rect x="641" y="72" width="10" height="10" rx="2" fill="#39d353"><animate attributeName="opacity" values="0.7;1;0.7" dur="3s" begin="0.83s" repeatCount="indefinite"/></rect>
  <rect x="641" y="85" width="10" height="10" rx="2" fill="#006d32"><animate attributeName="opacity" values="0.7;1;0.7" dur="3s" begin="0.59s" repeatCount="indefinite"/></rect>
  <rect x="641" y="98" width="10" height="10" rx="2" fill="#006d32"><animate attributeName="opacity" values="0.7;1;0.7" dur="3s" begin="0.18s" repeatCount="indefinite"/></rect>
  <rect x="654" y="20" width="10" height="10" rx="2" fill="#0e4429"><animate attributeName="opacity" values="0.7;1;0.7" dur="3s" begin="1.68s" repeatCount="indefinite"/></rect>
  <rect x="654" y="33" width="10" height="10" rx="2" fill="#161b22"></rect>
  <rect x="654" y="46" width="10" height="10" rx="2" fill="#161b22"></rect>
  <rect x="654" y="59" width="10" height="10" rx="2" fill="#161b22"></rect>
  <rect x="654" y="72" width="10" height="10" rx="2" fill="#161b22"></rect>
  <rect x="654" y="85" width="10" height="10" rx="2" fill="#161b22"></rect>
  <rect x="654" y="98" width="10" height="10" rx="2" fill="#161b22"></rect>
  <rect x="667" y="20" width="10" height="10" rx="2" fill="#161b22"></rect>
  <rect x="667" y="33" width="10" height="10" rx="2" fill="#161b22"></rect>
  <rect x="667" y="46" width="10" height="10" rx="2" fill="#161b22"></rect>
  <rect x="667" y="59" width="10" height="10" rx="2" fill="#161b22"></rect>
  <rect x="667" y="72" width="10" height="10" rx="2" fill="#006d32"><animate attributeName="opacity" values="0.7;1;0.7" dur="3s" begin="1.72s" repeatCount="indefinite"/></rect>
  <rect x="667" y="85" width="10" height="10" rx="2" fill="#0e4429"><animate attributeName="opacity" values="0.7;1;0.7" dur="3s" begin="0.84s" repeatCount="indefinite"/></rect>
  <rect x="667" y="98" width="10" height="10" rx="2" fill="#161b22"></rect>
  <rect x="680" y="20" width="10" height="10" rx="2" fill="#0e4429"><animate attributeName="opacity" values="0.7;1;0.7" dur="3s" begin="0.92s" repeatCount="indefinite"/></rect>
  <rect x="680" y="33" width="10" height="10" rx="2" fill="#161b22"></rect>
  <rect x="680" y="46" width="10" height="10" rx="2" fill="#161b22"></rect>
  <rect x="680" y="59" width="10" height="10" rx="2" fill="#161b22"></rect>
  <rect x="680" y="72" width="10" height="10" rx="2" fill="#0e4429"><animate attributeName="opacity" values="0.7;1;0.7" dur="3s" begin="0.44s" repeatCount="indefinite"/></rect>
  <rect x="680" y="85" width="10" height="10" rx="2" fill="#0e4429"><animate attributeName="opacity" values="0.7;1;0.7" dur="3s" begin="1.86s" repeatCount="indefinite"/></rect>
  <rect x="680" y="98" width="10" height="10" rx="2" fill="#0e4429"><animate attributeName="opacity" values="0.7;1;0.7" dur="3s" begin="0.38s" repeatCount="indefinite"/></rect>
  <rect x="693" y="20" width="10" height="10" rx="2" fill="#006d32"><animate attributeName="opacity" values="0.7;1;0.7" dur="3s" begin="0.16s" repeatCount="indefinite"/></rect>
  <rect x="693" y="33" width="10" height="10" rx="2" fill="#006d32"><animate attributeName="opacity" values="0.7;1;0.7" dur="3s" begin="0.06s" repeatCount="indefinite"/></rect>
  <rect x="693" y="46" width="10" height="10" rx="2" fill="#161b22"></rect>
  <rect x="693" y="59" width="10" height="10" rx="2" fill="#0e4429"><animate attributeName="opacity" values="0.7;1;0.7" dur="3s" begin="1.98s" repeatCount="indefinite"/></rect>
  <rect x="693" y="72" width="10" height="10" rx="2" fill="#0e4429"><animate attributeName="opacity" values="0.7;1;0.7" dur="3s" begin="0.04s" repeatCount="indefinite"/></rect>
  <rect x="693" y="85" width="10" height="10" rx="2" fill="#0e4429"><animate attributeName="opacity" values="0.7;1;0.7" dur="3s" begin="0.15s" repeatCount="indefinite"/></rect>
  <rect x="693" y="98" width="10" height="10" rx="2" fill="#0e4429"><animate attributeName="opacity" values="0.7;1;0.7" dur="3s" begin="1.01s" repeatCount="indefinite"/></rect>
  <rect x="706" y="20" width="10" height="10" rx="2" fill="#26a641"><animate attributeName="opacity" values="0.7;1;0.7" dur="3s" begin="0.92s" repeatCount="indefinite"/></rect>
  <rect x="706" y="33" width="10" height="10" rx="2" fill="#161b22"></rect>
  <rect x="706" y="46" width="10" height="10" rx="2" fill="#161b22"></rect>
</svg>